<?xml version="1.0" encoding="UTF-8"?>
<svg xmlns="http://www.w3.org/2000/svg" version="1.1" viewBox="0 0 500 500">
  <defs>
    <style>
      .cls-1 {
        fill: #194923;
      }
    </style>
  </defs>
  <!-- Generator: Adobe Illustrator 28.7.1, SVG Export Plug-In . SVG Version: 1.2.0 Build 142)  -->
  <g>
    <g id="fern_2">
      <g id="stem-2">
        <path class="cls-1" d="M228.2,494.7c-3.4-1.9-10.3-5.8-12-12.8-2.4-9.8,6.6-19.6,9-22.6,17-20.4,9.3-58.6,6-100-1.7-21.2-4.7-74.4,3.8-131.6,6.8-46.1,16.1-61.5,11.3-96.2-3.7-26.8-19.8-33.8-23.3-65.4-1.3-11.2-5.2-46.5,12.8-58.7,10.1-6.9,17.1.5,50.4-2.3C308.1,3.5,309,0,325.2,0c27.1.1,50.1,10.1,49.6,13.5-.4,2.5-12.7-.5-30.1,5.3-13.9,4.6-22.9,12.1-30.8,18.8-18.6,15.7-28.5,33.1-32.3,40.6-11.6,22.6-11.9,39.4-15.8,74.4-6.3,56.6-9.7,48.4-12.8,85.7-2.6,31.4.8,24.5,3,131.6,1.6,80.1-.4,78,3,90.2,3.6,12.8,9.4,27.8,2.3,35.3-6.8,7.2-23,4.9-33.1-.8h0Z"/>
      </g>
      <g id="leaves-3">
        <path class="cls-1" d="M287,115.2c7.2-4.1,28.5-7.5,41.6-15.6,19.8-12.3,26.8-26.1,39-35.7,42.8-33.4,126-37.7,128.5-27.3.6,2.4-10,3.6-21.2,12.6-20.8,16.7-33.5,38-46.2,52.9-15.8,18.5-38.2,26.4-61.8,31.9-30,7-41.3,6.4-67.6,6.5-20.6.1-34.1,16.8-34.1,16.8l3.1-27.7s8.4-8.5,18.8-14.4h0Z"/>
        <path class="cls-1" d="M262.2,209.8c10.2-14.1,26.1-18,41.4-21.5,21.6-5,49.6-5.5,67.6-6.1,52-1.7,78.8-24.8,102.1-50,10.1-11,16.4-29.4,21.2-27.6,11.5,4.2,1.7,68.3-3.4,82.7-4.2,11.7-9.3,21.3-14.3,25.6-11.9,10.4-23.6,14.1-55.4,13.1s-44.6-4.8-59.4-5c-12.7-.1-17.1-1.5-65.5,8.3-14.8,3-30.6,5.5-37.6,17.7-2.6,4.7-6.6,19.9-6.6,19.9,0,0-3.8-38.1,9.9-57.1h0Z"/>
        <path class="cls-1" d="M254.2,307.9s9.3-24.2,30-30.1c23.1-6.6,37-2,75.9,1.6,33.2,3.1,61.1,5.7,86.8-8.7,30.7-17.2,40.5-48.7,48.4-44.9,7.3,3.5,2,32-.7,46.9-6.3,33.9-5.1,52.6-16.1,61.3-10.9,8.6-27.1,6.3-49.8.6-31.5-7.9-35.1-12.8-64-19.3-25-5.7-56.7-4.9-80.8,3.5-15,5.2-28.8,16.2-28.8,16.2l-.9-27h0Z"/>
        <path class="cls-1" d="M255.6,374.2s22.4-12.4,34.6-13c16.3-.9,27.2,1.4,49.6,8.4,32.8,10.2,49.3,15.3,66.8,17.5,22.1,2.7,44.3,5.4,61.2-7.5,14.7-11.2,18.4-28.8,22.5-27.5,3.4,1.1.7,13.2,1.9,33.1,1,17.7,3.8,19,6.2,38.4,3.7,28.8,5.8,45.9-4.1,55.6-9.9,9.7-27.1,7.2-38.1,5.6-17.1-2.5-27.8-9.3-45-19.4,0,0-15.6-9.2-59.3-32.8-42.5-23-47.6-32.7-69.6-30.6-11.9,1.2-25.7,9-25.7,9l-1-36.9h0Z"/>
        <path class="cls-1" d="M257,443.6s19.8,6.7,28.4,15.2c10.5,10.4,6.4,20.9,17.2,30.2,4.7,4,6.9,5.9,15.1,8.6,18.8,6,73.2-.2,74.1-7.5.4-3.6-24-.6-41.5-17.2-11.8-11.2-21-5.1-35.6-14.8-19.2-12.6-23.2-20.6-39.5-27.1-8-3.2-18.3-.8-18.3-.8l.2,13.5h0Z"/>
        <path class="cls-1" d="M235.6,160.2c-17.9-4.2-35.2-1.1-48.8-13.1-12.5-11-2.4-30.4-6.6-55.8-4.2-25.3-3.4-37.4,1.9-36.9,3.6.3,10.7,14.2,14.2,27.4,4.1,15.3,3.3,22,8,29.2,3.9,5.8,13.8,12.8,23.5,20.7,11.2,9.1,19.8,20.4,19.8,20.4l-.8,12s-10.2-3.6-11.1-3.8h0Z"/>
        <path class="cls-1" d="M236.5,218.3s-24-38.8-35.6-49.9c-24.6-23.4-36.4-15.8-67.8-37.2-18-12.3-34.8-23.8-40.7-44.6-6.3-22.3,11-41.4,5.2-45.5-5-3.5-20.3,7.9-30.2,19.7-3.4,4.1-28.8,34.3-19.2,65.1,9.7,31.2,49.2,42.6,68.2,48.1,35.1,10.1,51.1,5.4,69.5,12.2,29.1,10.8,48.8,43.1,48.8,43.1l1.7-11.1h0Z"/>
        <path class="cls-1" d="M225.7,236c-7.3-5.4-23.2-18.6-48.3-21.9s-32.9,7-58.6-2c-22.8-8-36.1-12.7-52.3-14.5-32-3.4-43-50.3-52.9-51.8-2.4-.4-5.4,3.3-9.5,34.5-5.2,40.2-7.7,60.4,1.7,70.7,10.1,11.1,26.8,11.1,42.3,11.1,29.9,0,33.8-7.9,60.3-9,25.2-1,41.6,9.8,74.9,9.2,17.1-.3,48.3-6,48.3-6l1.3-12.8s-3.3-4.6-7.2-7.5h0Z"/>
        <path class="cls-1" d="M229.7,293.4s-25.7-6.7-43.6,1.5c-27.6,12.7-41.4,19-46.9,20.9-25.8,8.9-57.8,7.8-83.1-3.4-27.2-12-39.1-34-47.3-33.4-5.2.4-4.2,15.2-5.2,35.6-2.4,48.2-7.2,56.5,0,63.3,8,7.6,22,5.1,44.1,1.1,22.8-4.1,27.5-9.1,46.3-8.7,20.7.4,28.3,3.2,42.8-1.3,22.9-7.1,16-20.5,48.2-38,22-11.9,44.7-17.5,44.7-17.5v-20.2h0Z"/>
        <path class="cls-1" d="M233.8,387.1s-10.9-8-23.2-8-23,8.1-25.8,10.8c-.7.7-1.5,1.4-2.3,2.1-3.6,3-13.6,10.4-33.8,21.5-24.8,13.6-48.9,14.9-67.5,15.9-23,1.2-34.5,1.9-47.8-4.5-13.1-6.2-19.8-15.1-25.5-12.2-6.4,3.3-5.3,18.5-4.6,26.3.8,10.8,4.8,12.1,5.8,24,.8,9.6-1.2,11.1.8,17,2.4,7.2,8.1,13.6,15.1,16.6,6.6,2.9,11.5,1.4,23.2,0,0,0,18.6-2.2,36.8-1.5,22.1.8,24.1,3.1,36.8,2.7,18.4-2.9,25.5-18.3,33.3-27.2,37.7-43.3,34.8-51.9,48.3-60,12.5-7.5,32-6.5,32-6.5l-1.5-16.9h0Z"/>
      </g>
    </g>
  </g>
</svg>