<?xml version="1.0" encoding="UTF-8"?><svg id="fern_2" xmlns="http://www.w3.org/2000/svg" viewBox="0 0 500 500"><defs><style>.cls-1{fill:#172a28;}</style></defs><g id="stem-2"><path class="cls-1" d="M228.2,494.74c-3.4-1.91-10.29-5.77-12.03-12.78-2.42-9.75,6.6-19.65,9.02-22.56,17-20.43,9.3-58.56,6.02-100-1.68-21.22-4.66-74.36,3.76-131.58,6.78-46.06,16.06-61.52,11.28-96.24-3.68-26.75-19.77-33.82-23.31-65.41-1.26-11.22-5.2-46.45,12.78-58.65,10.14-6.88,17.09.47,50.38-2.26,21.96-1.8,22.88-5.32,39.1-5.26,27.14.1,50.15,10.05,49.62,13.53-.38,2.51-12.67-.5-30.08,5.26-13.87,4.6-22.91,12.1-30.83,18.8-18.61,15.74-28.47,33.1-32.33,40.6-11.64,22.6-11.88,39.4-15.79,74.44-6.32,56.64-9.66,48.39-12.78,85.71-2.62,31.4.81,24.47,3.01,131.58,1.64,80.12-.4,78.04,3.01,90.23,3.58,12.81,9.38,27.81,2.26,35.34-6.83,7.21-23.02,4.9-33.08-.75Z"/></g><g id="leaves-3"><path class="cls-1" d="M287.03,115.24c7.22-4.06,28.53-7.51,41.57-15.59,19.83-12.28,26.77-26.08,39.03-35.65,42.84-33.44,126.02-37.7,128.53-27.34.58,2.39-10.05,3.64-21.19,12.58-20.82,16.7-33.54,37.98-46.25,52.91-15.78,18.52-38.17,26.41-61.8,31.93-29.95,7-41.29,6.37-67.58,6.54-20.57.13-34.14,16.75-34.14,16.75l3.08-27.74s8.37-8.53,18.76-14.38Z"/><path class="cls-1" d="M262.23,209.81c10.18-14.07,26.09-17.99,41.36-21.52,21.58-4.99,49.58-5.54,67.56-6.12,52.03-1.66,78.76-24.8,102.09-50.01,10.15-10.97,16.38-29.38,21.25-27.61,11.54,4.21,1.7,68.31-3.43,82.66-4.17,11.67-9.34,21.31-14.29,25.63-11.86,10.35-23.58,14.1-55.42,13.08s-44.58-4.81-59.41-4.98c-12.7-.15-17.12-1.48-65.53,8.29-14.79,2.98-30.64,5.49-37.56,17.72-2.64,4.66-6.58,19.94-6.58,19.94,0,0-3.8-38.06,9.95-57.07Z"/><path class="cls-1" d="M254.22,307.9s9.33-24.21,29.99-30.15c23.11-6.65,37.01-2.03,75.95,1.58,33.21,3.08,61.09,5.66,86.75-8.67,30.73-17.17,40.53-48.7,48.4-44.94,7.28,3.47,2.02,31.96-.74,46.92-6.26,33.89-5.07,52.56-16.13,61.26-10.91,8.58-27.1,6.31-49.77.64-31.5-7.89-35.14-12.77-64.04-19.32-25.02-5.67-56.72-4.87-80.79,3.55-14.95,5.23-28.75,16.18-28.75,16.18l-.87-27.03Z"/><path class="cls-1" d="M255.61,374.18s22.4-12.36,34.58-13.01c16.33-.86,27.19,1.44,49.64,8.43,32.84,10.23,49.27,15.34,66.81,17.48,22.1,2.7,44.27,5.4,61.19-7.49,14.66-11.18,18.41-28.76,22.48-27.47,3.38,1.07.7,13.18,1.87,33.09,1.04,17.66,3.78,19.04,6.24,38.4,3.66,28.81,5.83,45.89-4.06,55.57-9.9,9.69-27.06,7.21-38.09,5.62-17.11-2.47-27.84-9.3-44.96-19.36,0,0-15.65-9.19-59.32-32.78-42.5-22.96-47.57-32.74-69.62-30.6-11.92,1.16-25.74,8.95-25.74,8.95l-1.04-36.85Z"/><path class="cls-1" d="M256.96,443.6s19.82,6.7,28.42,15.22c10.54,10.44,6.38,20.89,17.22,30.19,4.71,4.04,6.85,5.94,15.1,8.57,18.77,5.98,73.24-.17,74.09-7.54.42-3.63-23.96-.6-41.51-17.25-11.82-11.22-21.03-5.14-35.64-14.77-19.16-12.63-23.22-20.62-39.49-27.13-8.03-3.21-18.33-.82-18.33-.82l.16,13.53Z"/><path class="cls-1" d="M235.55,160.21c-17.86-4.21-35.17-1.09-48.83-13.15-12.46-11.01-2.43-30.37-6.62-55.83-4.17-25.32-3.4-37.38,1.89-36.9,3.56.32,10.7,14.22,14.19,27.44,4.05,15.34,3.29,22.02,8,29.16,3.86,5.85,13.78,12.77,23.51,20.66,11.21,9.09,19.83,20.43,19.83,20.43l-.84,12.01s-10.17-3.59-11.14-3.82Z"/><path class="cls-1" d="M236.47,218.27s-23.99-38.78-35.64-49.87c-24.61-23.42-36.44-15.77-67.75-37.15-17.98-12.28-34.82-23.78-40.65-44.58-6.26-22.33,11-41.4,5.25-45.46-4.96-3.5-20.27,7.89-30.16,19.67-3.41,4.06-28.83,34.34-19.23,65.13,9.74,31.23,49.17,42.6,68.19,48.08,35.09,10.11,51.06,5.41,69.5,12.24,29.07,10.77,48.76,43.1,48.76,43.1l1.74-11.15Z"/><path class="cls-1" d="M225.72,236.02c-7.32-5.4-23.16-18.56-48.29-21.94s-32.91,6.97-58.56-1.99c-22.84-7.98-36.06-12.73-52.32-14.47-31.96-3.42-42.97-50.3-52.87-51.76-2.41-.36-5.4,3.29-9.46,34.51-5.22,40.16-7.65,60.45,1.67,70.68,10.09,11.09,26.79,11.11,42.3,11.13,29.89.04,33.77-7.95,60.27-9.03,25.18-1.02,41.55,9.84,74.89,9.2,17.11-.33,48.3-5.95,48.3-5.95l1.27-12.84s-3.29-4.65-7.19-7.53Z"/><path class="cls-1" d="M229.73,293.42s-25.68-6.67-43.57,1.54c-27.6,12.67-41.4,19.01-46.91,20.91-25.78,8.91-57.76,7.79-83.09-3.39-27.21-12.01-39.06-33.97-47.34-33.37-5.16.37-4.21,15.23-5.22,35.63-2.39,48.24-7.24,56.47,0,63.31,8.01,7.56,21.96,5.07,44.09,1.13,22.81-4.06,27.54-9.1,46.34-8.73,20.73.41,28.31,3.18,42.81-1.33,22.86-7.11,15.99-20.5,48.2-37.99,21.96-11.93,44.7-17.53,44.7-17.53v-20.18Z"/><path class="cls-1" d="M233.76,387.08s-10.94-8.04-23.23-8.04c-12.52,0-22.99,8.08-25.78,10.84-.73.72-1.47,1.41-2.27,2.06-3.62,2.95-13.57,10.42-33.76,21.51-24.8,13.63-48.92,14.93-67.54,15.93-23,1.24-34.5,1.86-47.79-4.46-13.06-6.21-19.83-15.14-25.54-12.25-6.45,3.27-5.26,18.45-4.64,26.31.84,10.78,4.79,12.07,5.8,23.99.82,9.64-1.19,11.08.77,17.03,2.37,7.18,8.13,13.61,15.09,16.64,6.64,2.89,11.46,1.4,23.22,0,0,0,18.63-2.22,36.76-1.55,22.05.82,24.09,3.14,36.76,2.71,18.38-2.89,25.49-18.29,33.3-27.25,37.69-43.26,34.79-51.9,48.28-60.03,12.47-7.52,32.02-6.53,32.02-6.53l-1.47-16.91Z"/></g></svg>