<?xml version="1.0" encoding="UTF-8"?><svg id="koru_3" xmlns="http://www.w3.org/2000/svg" viewBox="0 0 500 500"><defs><style>.cls-1{fill:#6d1d14;}</style></defs><path class="cls-1" d="M474.89,333.71c-12.01-3.1-19.16,35.27-54.93,50.63-15.34,6.59-41.35,9.34-63.38,9.53,0,0-5.01.04-10.29-.15-100.79-3.59-156.44-35.79-156.44-35.79-21.13-10.57-56.5-32.47-78.98-75.04-8.35-15.82-21.13-40.02-16.44-69.16,7.92-49.14,58.38-80.92,75.67-89.84,40.64-20.95,107.85-19.82,155.7-3.62,60.94,20.62,39.4,102.04,18.81,132.66-16.38,24.35-57.05,29.26-71.13,29.59-11.19.26-29.25-3.97-42.29-12.67-19.16-12.79-32.21-28.67-29-47.31,5.72-33.17,37.99-37.68,42.81-25.46,8.13,20.61-21.21,40.11-1.1,54.21,6.46,4.53,23.36,1.98,34.84-6.04,17.05-11.91,25.2-36.98,16.48-55.67-12.77-27.39-58.65-34.44-88.82-22.18-28.22,11.46-38.11,37.93-41.36,46.61-17.76,47.5,23.27,89.07,29.03,94.31,25.14,22.9,54.05,30.94,76.99,33.55,62.41,7.12,103.84-8.77,117.88-15.38,71.79-33.78,106.8-141.63,76.47-218.16-28.6-72.15-102.06-91.17-125.97-97.12C258.34-8.98,129.3,1.63,54.21,86.52-14.33,164.02-9.18,287.95,31.59,352.28c42.58,67.18,97.04,91.91,145.94,111.02,74.51,29.13,246.55,61.87,299.18,1.36,34.6-39.78,17.34-126.01-1.82-130.95Z"/><path class="cls-1" d="M239.38,380.84c5.25-8.59-9.35-30.53-12.29-33.79-15.62-17.28-35.62-19.68-42.84-20.42-7.66-.79-26.16,1.62-32.07,10.58-3.47,5.26.32,7.82.69,9.35,6.88,28.54,77.47,49.07,86.52,34.28Z"/><path class="cls-1" d="M378.31,399.56c3.35-10.39-20.07-27.49-22.12-28.98-5.41-3.95-19.48-13.89-38.53-11.82-4.14.45-18.72,2.27-30.32,14.87-5.19,5.64-11.33,11.47-10.51,16.52,3.22,19.9,95.44,28.1,101.48,9.4Z"/><path class="cls-1" d="M102.19,270c13.83,1.05,31.07-6.55,38.21-16.37,9.35-12.85,7.33-27.23,6.2-35.26-.54-3.86-7.16-33.45-30.47-47.66-7.04-4.29-17.01-8.06-28.04-3.88-22.67,8.58-30.71,63.84-7.36,89.51,2.03,2.24,6.82,12.55,21.46,13.66Z"/><path class="cls-1" d="M234.8,108.6c.61,11.49,6.76,19.43,9.91,23.39,16.68,20.94,44.26,21.04,47.17,21.01,5.75-.07,16.83-.34,28.14-7.53,8.63-5.48,22.49-18.22,21.01-30.13-3.36-26.94-85.08-48.09-101.47-26.56-3.72,4.89-5.1,13.33-4.76,19.82Z"/><path class="cls-1" d="M365.84,187.31c-7.65-2.99-16.75-4.28-25.21,2.14-10.51,7.98-12.88,22.6-10.06,33.43,4.53,17.42,23.53,29.91,32.61,25.78,14.17-6.44,19.67-54.71,2.66-61.35Z"/><path class="cls-1" d="M312.24,269.06c-3.81-3.19-8.08-6.76-14.67-8-7.22-1.36-19.49-.35-24.46,8.45-4.24,7.5-1.36,17.49,3.56,23.12,12.87,14.73,46.01,6.87,48.91-3.56,2-7.17-9.85-17.09-13.34-20.01Z"/></svg>