<?xml version="1.0" encoding="UTF-8"?><svg id="koru" xmlns="http://www.w3.org/2000/svg" viewBox="0 0 500 500"><defs><style>.cls-1{fill:#6d1d14;}</style></defs><g id="stem-5"><path class="cls-1" d="M477.35,336.43c-12.16-3.14-19.4,35.7-55.61,51.26-15.53,6.67-41.86,9.46-64.17,9.64,0,0-5.07.04-10.42-.15-102.04-3.64-158.38-36.23-158.38-36.23-21.39-10.7-57.2-32.87-79.96-75.97-8.46-16.01-21.4-40.51-16.64-70.02,8.01-49.75,60.3-75.18,77.81-84.21,41.15-21.21,115.49-39.49,150.92-2.6,23.15,24.1,45.4,95.5,24.55,126.49-16.58,24.65-57.75,29.62-72.01,29.95-11.33.26-29.34-4.45-42.81-12.83-7.59-4.72-17.3-15.26-13.82-25.78,3.73-11.29,20.89-17.24,25.74-13.54,4.75,3.63-4.39,15,.95,20.53,5.55,5.75,23.64,2,35.27-6.12,17.26-12.06,25.51-37.43,16.68-56.36-12.93-27.73-59.37-34.86-89.92-22.46-28.57,11.6-38.59,38.4-41.87,47.19-17.98,48.09,24.54,89.26,29.39,95.48,27.37,35.12,65.49,38.64,77.48,39.47,63.44,4.41,109.68-5.92,120.33-12.25,69.07-41,107.6-152.21,76.89-229.69-28.95-73.04-103.33-92.3-127.53-98.33C258.12-10.5,127.47.24,51.46,86.18-17.94,164.65-8.17,287.44,28.55,355.24c41.61,76.82,96.05,88.06,148.78,108.88,75.34,29.74,248.57,66.15,301.85,4.89,35.03-40.27,17.55-127.57-1.84-132.58Z"/></g><g id="bumbs"><path class="cls-1" d="M240.94,381.11c5.32-8.7-9.47-30.91-12.45-34.2-15.82-17.5-36.06-19.92-43.37-20.68-7.76-.8-26.49,1.64-32.47,10.71-3.51,5.32.33,7.92.7,9.46,6.97,28.9,78.43,49.67,87.59,34.71Z"/><path class="cls-1" d="M379.58,399.05c3.4-10.52-20.32-27.83-22.39-29.34-5.48-4-19.72-14.06-39-11.97-4.19.46-18.96,2.3-30.7,15.05-5.25,5.71-11.47,11.62-10.64,16.73,3.26,20.15,96.62,28.45,102.73,9.52Z"/><path class="cls-1" d="M105.33,278.3c16.06,1.22,36.09-7.61,44.39-19.02,10.86-14.93,8.51-31.63,7.2-40.97-.63-4.49-8.31-38.86-35.4-55.37-8.18-4.98-19.76-9.36-32.58-4.51-26.33,9.97-35.67,74.16-8.55,103.99,2.36,2.6,7.92,14.58,24.93,15.87Z"/><path class="cls-1" d="M231.2,115.22c.69,13.05,7.68,22.07,11.25,26.56,18.95,23.78,50.26,23.9,53.57,23.86,6.53-.08,19.11-.39,31.96-8.55,9.8-6.22,25.55-20.69,23.86-34.21-3.82-30.59-96.63-54.62-115.24-30.16-4.23,5.55-5.79,15.14-5.4,22.51Z"/><path class="cls-1" d="M349.93,189.93c-8.99-.51-22.45,5.36-25.55,10.82-7.14,12.59-5.72,27.94.9,38.26,10.66,16.61,34.71,23.15,42.77,15.76,12.57-11.54,1.87-63.72-18.12-64.84Z"/><path class="cls-1" d="M312.68,270.98c-3.85-3.23-8.18-6.85-14.86-8.1-7.31-1.37-19.73-.35-24.76,8.55-4.29,7.6-1.38,17.71,3.6,23.41,13.03,14.92,46.58,6.96,49.52-3.6,2.02-7.26-9.98-17.3-13.51-20.26Z"/></g></svg>