<?xml version="1.0" encoding="UTF-8"?><svg id="multiple" xmlns="http://www.w3.org/2000/svg" viewBox="0 0 500 500"><defs><style>.cls-1{fill:#fe9a66;}</style></defs><g id="Layer_27"><path class="cls-1" d="M453.94,110.56c-.83-7.23-9.7-18.57-13.02-23.33-8.21-11.79-7.98-18.5-14.1-26.04-10.35-12.74-36.74-5.85-52.62,2.17-32.42,16.38-47.19,50.99-47.19,50.99,0,0,7.12-18.03,7.05-42.31-.02-7.68-.12-39.49-23.33-57.5-3.51-2.72-13.87-10.54-28.21-10.85-26.56-.57-52.5,24.97-54.79,48.82-2.73,28.49,26.76,56.42,39.15,66.81-7.46-5.63-22.25-15.74-41.32-23.42-13.89-5.59-41.26-16.62-55.33-5.42-19.13,15.22-14.17,71.92,17.9,86.25,10.53,4.7,21.57,3.77,30.19,1.56-9.8,5.86-16.79,15.28-18.83,26.16-2.09,11.19.93,24.54,9.16,32.49,6.34,6.12,10.73,4.18,21.66,12.5,10.73,8.17,9.01,11.96,15.83,15,9.23,4.11,14.68-1.83,37.49-5.83,20.73-3.64,24.07-.11,29.16-5,11.04-10.62,4.56-36.13,2.33-44.89-3.06-12.05-7.64-20.31-6.49-20.92,1.45-.78,6.51,13.6,21.08,25.83,11.98,10.05,18.81,8.94,28.21,20.07,7.63,9.03,6.03,13.19,10.85,15.73,14.27,7.52,54.61-15.04,54.79-43.4.14-21.47-22.79-35.4-36.59-41.7,6.68-.12,13.7-.63,20.86-1.7,5.59-.84,22.99-8.4,35.8-25.49,4.64-6.19,11.58-15.45,10.31-26.58ZM335.07,158.64c-3.61,14.16-30.76,18.99-49.7,14.53-2.49-.59-26.1-6.15-27.58-20.01-1.27-11.87,14.59-21.25,17-22.68,1.15-.68,20.94-11.94,40.4-1.41,10.46,5.66,22.67,18.61,19.88,29.56Z"/></g><g id="Layer_28"><path class="cls-1" d="M213.8,306.59c2.7-.71,5.31-1.73,7.75-3.13,11.38-6.54,19.36-21.49,17.03-34.06-2.42-13.06-15.76-11.06-25.23-29.01-10.66-20.22-5.98-32.52-18.92-51.72-4.79-7.1-14.2-18.55-25.37-17.88-14.65.89-24.11,23.81-27.61,33.01-8.25,21.69-10.09,38.47-10.09,38.47,0,0-3.76-31.17-24.6-52.35-14.45-14.69-41.2-26.11-58.03-15.77-18.98,11.67-19.26,47.32-6.94,69.38,15.77,28.22,53.66,36.85,52.98,38.47-.84,1.98-50.25-27.98-72.53-11.35-13.54,10.1-17.63,37.84-6.94,51.09,4.98,6.18,4.5,3.38,15.77,12.61,19.56,16.04,19.34,22.76,28.38,24.6,14.58,2.96,30.05-11.49,30.91-10.09.42.69-3.16,3.47-3.16,3.47-13.55,10.51-46.94,64.88-31.53,84.2,10.27,12.87,40.68,8.29,59.29-2.52,18.43-10.71,26.44-28.23,29.01-34.06,9.19-20.82,8.83-39.74,8.83-39.74,0,0,1.72,63.43,23.97,70.64,9.32,3.02,21.93-4.19,27.75-12.61,8.03-11.61-.5-20.25,6.31-39.1,5.45-15.1,12.64-14.34,16.4-28.38.33-1.23,5.7-22.38-5.05-36.58-2.3-3.04-5.18-5.54-8.38-7.59ZM139.51,345.26c-7.36,2.69-16.53,1.35-21.25-3.98-5.79-6.55-5.09-5.49-8.41-28.77-1.14-8.01-1.81-14.72-2.21-19.47,0-12.89,2.42-18.96,9.29-19.03,6.13-.06,10.91,4.18,18.86,13.2,10.89,12.37,12.75,16.43,14.13,19.96,2.75,7.04,3.57,10.05,3.75,15.08.28,8.15-4.03,19.32-14.16,23.02Z"/></g><path class="cls-1" d="M477.31,401.66c9.19-9.75,16.11-25.96,12.49-40.36-2.95-11.75-10.38-12.17-19.22-29.79-9.01-17.96-8.05-22.59-14.64-27.57-17.16-12.96-64.4,27.84-65.68,25.81-.01-.02,29.61-21.45,35.2-40.8,4.83-16.7-4.42-33.26-19.75-43.93-29.94-20.83-68.05-5.55-80.71-.48-13.54,5.43-33.67,12.05-33.63,25.94.06,17.92,23.19,46.97,32.28,57.71-8.32-9.41-29.02-31.79-40.45-35.13-20.01-5.85-38.77,13.36-43.72,17.78-6.1,5.44-17.17,15.31-20.18,30.75-2.93,15.06,4.83,19.88,4.32,43.72-.35,16.39,2.95,18.28,7.48,21.14,11.48,7.22,49.18-2.13,59.83-4.99-8.19,2.38-32.69,10.38-52.9,26.13-15.51,12.08-11.89,44.23,3.84,59.09,17.77,16.77,48.32,8.85,64.86-2.88,25.07-17.78,31.25-53.75,31.96-53.48.67.26-2.05,28.91,7.92,47.6,6.89,12.93,24.71,17.88,36.32,18.35,8.58.35,12.62-1.79,29.31-7.21,39.17-12.7,35.02-19.96,37.47-25.94,7.87-19.17-55.54-57.14-55.54-57.14,0,0,8.47,4.26,20.18,7.69,2.76.81,40.9,11.36,62.94-12.01ZM388.73,382.02c-1.95,16.33-23.83,24.06-27.64,25.4-4.07,1.44-29.23,10.33-42.09-4.62-9.37-10.89-6.73-28.09.07-38.93,6.57-10.48,18.2-16.93,29.9-17.25,20.78-.57,41.82,18.19,39.76,35.4Z"/></svg>