<?xml version="1.0" encoding="UTF-8"?><svg id="manuka_4" xmlns="http://www.w3.org/2000/svg" viewBox="0 0 500 500"><defs><style>.cls-1{fill:#fe9a66;}</style></defs><g id="Layer_20"><path class="cls-1" d="M483.57,152.86c-26.97-24.85-73.1-2.12-100.89,11.37-4.51,2.19-51.16,26.39-51.16,26.39,0,0,55.81-40.88,69.15-65.69,9.5-17.67,4.88-46.26-10.37-62.24-16.01-16.77-32.12-5.04-70.02-19.02-40.81-15.05-44.2-36.78-71.74-37.17-21.58-.3-48.83,11.92-57.05,32.85-13.38,34.05,37.49,134.93,37.49,134.93,0,0-52.85-89.75-86.86-113.6-12.01-8.42-33.57-18.11-56.54-11.93-8.11,2.18-38.08,9.68-53.44,18.11-18.93,10.39-26.6,19.97-29.48,26.5-5.55,12.57-1.82,26.66,5.63,52.56,9.32,32.42,4.36,30.55,12.16,42.48,22.33,34.13,141.1,20.68,141.1,20.68,0,0-73.32,15.02-97.54,23.65-8.76,3.12-29.25,13.46-39.83,29.35-17.37,26.08-15.9,57.86-8.83,79.06,5.15,15.45,10.13,24.38,21.2,41.96,7.51,11.93,4.42,37.1,14.93,49.78,9.16,11.04,35.32,16.28,51.76,1.9,29.7-25.96,45.93-74.2,56.09-90.99,1.2-1.99,26.06-43.73,26.06-43.73,0,0-55.98,103.12-29.55,144.21,8.45,13.13,25.91,22.87,39.92,26.88,17.11,4.9,25.26.18,46.44,6.52,18.85,5.64,17.22,10.83,32.59,15.48,36.23,10.95,70.87-10.17,74.13-12.22,8.13-5.12,22.13-13.93,30.14-30.14,24.74-50.09-30.06-125.58-62.46-159.21-6.92-7.19-13.18-13.37-13.18-13.37,0,0,59.09,48.96,95.81,60.87,9.51,3.08,40.96,10.65,49.36-7.7,10.05-21.97,9.32-51.2,12.6-64.54,4.12-16.76,7.87-28.56,25.04-52.02,11.63-15.88,14.07-46.53-2.68-61.96ZM305.4,265.48c-7.55,9.82-22.43,10.95-36.9,14.2-20.65,4.63-38.74,6.66-45.55,6.25-26.99-1.62-52.43-23.48-53.59-53.29-.53-13.69,5.72-29.44,18.1-38.3,3.02-2.16,20.58-11.34,53.9-7.8,37.21,3.95,52.89,9.3,64.79,28.2,9.52,15.12,9.34,37.62-.75,50.75Z"/></g></svg>