<?xml version="1.0" encoding="UTF-8"?><svg id="manuka" xmlns="http://www.w3.org/2000/svg" viewBox="0 0 500 500"><defs><style>.cls-1{fill:#fe9a66;}</style></defs><g id="stem-3"><path class="cls-1" d="M21.89,500c-.73-3.57,29.17-16.05,78.87-34.47,41.54-15.39,63.64-22.7,86.94-34.81,23.27-12.1,46.93-27.85,60.65-57.93,4.03-8.83,15.68-47.36,1.66-74.68-10.11-19.71-52.31-54.87-50.38-58.32,1.38-2.47,34.32,26.27,44.32,32.56,22.36,14.07,26.66,43.7,29.55,63.64,4.19,28.9.32,46.25-11.5,65.77-16.82,27.77-34.67,36.68-48.83,55.2-9.24,12.08-17.25,27.28-23.02,34.69-14,17.98-59,5.51-94.98,4.21-42.45-1.53-72.53,7.72-73.26,4.14Z"/><path class="cls-1" d="M308.82,316.84c13.48-8.5,21.11-13.41,47.11-21.9,23.22-7.58,29.76-3.92,45.68-17.42,17.6-14.92,17.51-33.19,37.38-59.44,14.42-19.05,28.96-36.69,44.22-33.47,3.05.64,9.54,1.95,11.01,10.08.01,1.71.03,3.39.04,5.1-.69,5.06-.43,22.52-.06,42.87.49,26.85,6.7,39.7,5.8,60.92-.95,22.09-7.61,36.07-15,45.76-10.03,13.15-16.25,22.95-28.15,27.84-13.58,5.58-32.65,7.02-51.75,1.24-15.76-4.77-22.41-8.97-39.67-13.22-15.28-3.76-32.23-7.22-51.24-2.48-23.23,5.79-41.99,16.28-41.99,16.28l2.83-26.7s12.67-22.14,33.78-35.45Z"/><path class="cls-1" d="M248.34,372.78c-4.96-7.61-19.33-17.17-32.72-22.85-17.08-7.25-27.21-.52-56.75-.53-25.53,0-44.73-.01-62.01-11.56-17.28-11.56-13.01-16.94-37.83-36.78-8.84-7.07-21.93-13.31-33.63-9.46-17.36,5.71-21.87,32.43-23.4,41.51-3.86,22.83-2.06,65.48,27.61,82.5,18.54,10.64,39.66,6.5,43.09,5.78,19.48-4.1,20.34-14.47,37.83-17.34,19.73-3.23,27.06,8.57,50.45,10.51,21.15,1.75,38.56-6.87,49.4-11.56,12.25-5.3,26.18-11.2,32.81-16.07"/></g><g id="flower-2"><path class="cls-1" d="M107.77,106.4c-3.92-7.17-16.36-30.8-8.82-59.34,1.62-6.13,6.22-23.56,22.05-36.09,30.27-23.95,72.25-6.77,78.99-4.01,10.22,4.18,21.51,8.8,29.27,20.45,18.6,27.93-2.98,66.39-4.01,68.17-9.32,16.09-29.21,19.83-46.13,27.39s-31.61,19.01-46.23,11.78c-13.2-6.52-19.89-18.77-25.12-28.35Z"/><path class="cls-1" d="M240.89,98.38c-11.2-32.03,11.39-61.2,15.24-66.16,16.1-20.79,37.61-27.29,44.51-29.27,24.74-7.1,67.63-7.8,87.01,19.25,23.39,32.64,3.6,86.71-30.88,108.66-22.27,14.18-46.12,12.05-54.53,10.83-6.57-.96-48.99-7.94-61.35-43.31Z"/><path class="cls-1" d="M301.38,149.78c8.06-.46,28.94-1.66,43.71,12.43,22.74,21.7,10.84,60.43,10.02,62.95-10.73,33.22-45.03,53.36-76.19,54.93-26.08,1.32-61.35-9.79-67.36-32.08-.82-3.04-2.08-9.93,4.41-25.66,1.3-3.16,18.5-17.28,34.03-35.07,14.01-16.05,24.97-35.99,51.38-37.51Z"/><path class="cls-1" d="M100.01,241.48c-7.22,15.77-2.8,31.1-2.05,33.54,6.74,22.15,30.01,37.97,53.95,37.91,36.74-.09,53.82-37.52,54.69-39.5,7.03-16.11,10.92-43.03-3.21-58.26-23.43-25.27-87.35-8.67-103.37,26.31Z"/><path class="cls-1" d="M114.66,215.64c-12.85,15.53-35.56,27.09-58.94,23.26C22.29,233.42,3.13,199.04.38,171.13c-2.36-23.98,5.83-58.95,34.88-72.98,20.84-10.06,44.84-5.7,60.95,4.41,35.39,22.23,45.52,80.37,18.44,113.07Z"/><path class="cls-1" d="M147.94,158.59c2.55-17.88,25.15-26.06,35.1-29.67,8.01-2.9,37.81-13.69,58.08,3.76.75.65,18.1,16.07,14.21,36.35-3.55,18.51-22.02,26.66-28.83,29.67-1.89.83-29.64,12.53-54.74-3.34-3.68-2.32-26.58-17.43-23.82-36.77ZM115.01,181.44c1.76,13.18,10.13,22,15.12,27.25.44.46,8.1,7.12,18.03,13.32,25.48,15.91,71.74,28.57,110.32,3.96,23.22-14.81,47.23-46.43,41.56-73.71,0,0,0-.01,0-.02-6.99-33.51-52.7-48.45-57.38-49.95-40.65-13-76.18,5.51-85.58,11.38-14.27,8.9-24.16,21.08-24.16,21.08-1.26,1.55-3.87,4.76-6.51,9.1-13.37,21.98-11.38,37.6-11.38,37.6Z"/></g></svg>