<?xml version="1.0" encoding="UTF-8"?><svg id="pohu_3" xmlns="http://www.w3.org/2000/svg" viewBox="0 0 500 500"><defs><style>.cls-1{fill:#ff5c00;}</style></defs><path class="cls-1" d="M239.45,389.57c-4.64.19-18.84,1.06-24.91.58-27.23-2.18-28.34-3.52-28.34-3.52,0,0,4.31,31.2,20.89,41.9,4.53,2.93,7.16,8.08,7.13,13.47-.01,2.64-.19,5.25-.69,7.16-3.24,12.35-7.66,20.3-10.83,23.87-3.35,3.77-10.14,5.26-14.78.29-6.98-7.47-31.04-11.88-50.05-18.88-42.5-15.66-71.34-68.21-81.69-87.27-10.35-19.06-15.21-69.06-19.09-98.81-3.49-26.76-3.26-58.53-20.9-58.59-14.15-.05-13.23,12.32-13.23,31.38s3.02,102.67,4.11,117.38c1.09,14.71,7.82,70.1,19.61,90.95,13.83,24.46,31.98,42.9,61.39,45.08s49.5-16.38,65.81-8.11c45.35,23,59.2-14.5,59.93-16.08.02-.05.03-.08.05-.13.99-2.17,4.92-6.51,9.86,3.04l.64,1.16c4.95,8.25,9.22,11.82,13.34,14.31,8.1,4.89,27.9,8.89,43.87,2.12,16.81-7.13,43.94-2.19,61.83-.84,20.52,1.55,23.08-11.7,37.24-11.7s32.13,14.17,61.32,12.44c28.17-1.66,41.73-39.54,48.95-59.05,12.08-32.67,3.07-62.85,2.52-93.89-.54-31.04,7.11-109.27,6.56-119.62-.54-10.35-1.31-37.57-17.47-30.86-13.61,5.65-49.15,173.82-58.04,192.7-9.26,19.68-47.05,30.76-62.85,33.48-15.79,2.72-46.84,4.36-63.72,23.42-12.62,14.25-19.16,27.67-22.4,35.72-1.81,4.49-5.44,8-10.01,9.59-4.33,1.5-9.27,1.51-12.69,1.42-8.14-.2-20.25-4.6-25.44-28.66-.8-3.71-1.26-7.23-1.16-10.52.19-6.27,4.03-11.91,9.8-14.37,4.88-2.08,12.39-6.63,18.29-15.5,0,0,10.33-14.94,14.17-26.82s0,0,0,0l-29,1.75Z"/><g id="petals_2"><path class="cls-1" d="M186.2,387.97s-36.87,11.79-68.07-1.35c-24.24-10.78-41.45-32.33-56.66-61.04-10.35-19.54-18.43-55.89-8.14-56.14,25.69-.62,38.62,42.1,49.37,58.32,11.73,17.69,25.96,30.99,35.6,36.61,15.97,9.32,43.31,10.2,41.97,9.63-50.63-21.64-85.81-84.88-93.48-98.53-27.6-49.16-49.72-101.61-59.91-137.48-10.84-38.13-16.48-55.54,4.21-64.53,7.42-3.23,17.76,2.13,20.14,5.35,17.67,23.92,20.48,36.35,25.75,55.93,5.24,19.45,20.53,65.36,45.51,115.79,21.93,44.26,42.34,66,42.34,66,0,0-29.4-50.12-54.4-147.13-13.8-53.52-28.95-140.08-6.86-153.64,10.11-6.2,26.19-1.28,35.64,6.11,19.19,15.02,14.43,42.95,15.49,88.63.93,39.89,5.78,67.6,15.49,123.01,10.54,60.16,33.72,93.38,33.72,93.38,0,0-18.53-114.6-22.75-182.04-3.52-56.21,5.26-88.49,11.5-101.58,3.53-7.41,13.56-31.97,37.9-29.3,25.99,2.85,27.09,22.77,27.95,32.36,2.66,29.71-.54,65.28-4.65,91.68-7.77,50-14.62,71.59-16.89,90.94-9.94,84.72-2.9,88.04-2.9,88.04,0,0,5.37-10.35,12.05-42.99,4.91-24,10-50.21,21.69-101.61,13.36-58.73,18.7-76.92,30.21-99.32,8.75-17.02,29.74-57.87,50.36-55.01,13.94,1.94,21.4,22.98,22.47,25.98,9.74,27.46-4.45,49.84-30.21,110.02-13.27,30.98-29.24,64.39-42.84,95.21-15.84,35.89-35.63,70.48-35.63,70.48,0,0,43.59-57.67,74.6-130.54,13.37-31.41,30.03-61.36,44.16-92.45,22.91-50.4,33.76-78.44,52.68-79.46,11.5-.62,22.65,8.92,27.89,18.34,14.85,26.7-10.35,65.95-34.86,103.14-18.11,27.48-26.63,40.49-48.56,68.88-46.8,60.6-108.06,136.63-108.06,136.63,0,0,90.04-77.19,126.65-135.52,25.52-40.66,44.89-34.58,50.36-32.09,11.69,5.34,9.7,32.47,4.83,51.82-4.81,19.1-27.94,60.16-76.34,90.94-60.67,38.59-101.42,54.88-101.42,54.88,0,0,54.14-1.02,94.55-23.46,24.21-13.44,38.45-8.92,38.75-2.9.92,18.67-18.16,31.01-32.05,37.64-17.25,8.24-30.31,13.08-54.03,16.18-24.02,3.14-55.82-7.58-55.82-7.58"/></g></svg>