<?xml version="1.0" encoding="UTF-8"?><svg id="pohutukawa" xmlns="http://www.w3.org/2000/svg" viewBox="0 0 500 500"><defs><style>.cls-1{fill:#ff5c00;}</style></defs><g id="leaves"><path class="cls-1" d="M239.46,395.01c-4.64.19-18.84,1.06-24.91.58-27.23-2.18-28.34-3.52-28.34-3.52,0,0,4.31,31.2,20.89,41.9,4.53,2.93,7.16,8.08,7.13,13.47-.01,2.64-.19,5.25-.69,7.16-3.24,12.35-7.66,20.3-10.83,23.87-3.35,3.77-10.14,5.26-14.78.29-6.98-7.47-18.06-20.11-37.06-27.11-42.5-15.66-78.07-63.51-88.42-82.57-10.35-19.06-21.46-65.53-25.34-95.28-3.49-26.76-5.59-63.09-23.23-63.15-14.15-.05-13.87,13-13.87,32.06s5.99,106.56,7.08,121.26c1.09,14.71,7.82,70.1,19.61,90.95,13.83,24.46,31.98,42.9,61.39,45.08s49.5-16.38,65.81-8.11c45.35,23,59.2-14.5,59.93-16.08.02-.05.03-.08.05-.13.99-2.17,4.92-6.51,9.86,3.04l.64,1.16c4.95,8.25,9.22,11.82,13.34,14.31,8.1,4.89,27.9,8.89,43.87,2.12,16.81-7.13,43.94-2.19,61.83-.84,20.52,1.55,23.08-11.7,37.24-11.7s35.46,17.95,64.66,16.23c28.17-1.66,41.84-42.04,49.05-61.56,12.08-32.67-.37-64.13-.91-95.17-.54-31.04,7.11-109.27,6.56-119.62s-1-36.77-17.47-30.86c-22.12,7.93-54.81,172.99-63.7,191.87-9.26,19.68-41.39,31.59-57.19,34.31-15.79,2.72-46.84,4.36-63.72,23.42-12.62,14.25-19.16,27.67-22.4,35.72-1.81,4.49-5.44,8-10.01,9.59-4.33,1.5-9.27,1.51-12.69,1.42-8.14-.2-20.25-4.6-25.44-28.66-.8-3.71-1.26-7.23-1.16-10.52.19-6.27,4.03-11.91,9.8-14.37,4.88-2.08,12.39-6.63,18.29-15.5,0,0,10.33-14.94,14.17-26.82s0,0,0,0l-29,1.75Z"/></g><g id="flower"><path class="cls-1" d="M158.98,389.3c-26.14-7.72-59.07-31.2-78.62-59.66-24.07-35.03-34.23-70.17-48-126.87C18.6,146.07,9.87,69.41,9.87,69.41h62.65s10.43,87.87,16.38,108c6.07,20.52,25.06,98.13,39.58,125.71,17.15,32.57,57.49,82.85,70.11,90.36s-27.88-.71-39.63-4.18Z"/><path class="cls-1" d="M200.52,396.05s-22.04-20.86-49.05-74.88c-12.35-24.69-37.08-98.11-43.51-123.68-6.43-25.57-17.67-92.19-20.08-108.25-2.41-16.06-3.2-19.83-3.2-19.83h67.9s8.51,107.78,16.16,146.38c7.65,38.6,31.67,159.71,47.07,180.54l-15.29-.28Z"/><path class="cls-1" d="M212.47,396.82s-9.02-48.78-13.78-75.44c-4.76-26.66-23.86-190.18-24.87-200.92-1-10.74-4.89-51.04-4.89-51.04h62.95s-1.82,146.16-1.05,160.45-2.35,158.53-2.35,158.53v8.42h-16.03Z"/><path class="cls-1" d="M240.35,311.46c1.54-14.98,4.13-73.79,4.56-82.78s4.8-159.27,4.8-159.27h62.12s-9.5,123.21-20.53,177.43c-11.03,54.22-31.53,115.46-50.08,151.61l-13.96.69"/><path class="cls-1" d="M242.24,395.89s34.31-60.88,46.14-90.43c14.62-36.53,29.99-122.54,33.1-156.02,3.11-33.48,8.46-80.03,8.46-80.03h67.6s-16.99,112.45-45.43,174.22c-7.49,16.26-16.91,38.2-32.23,66.01-21.12,38.36-36.4,54.34-47.61,65.95-21.36,22.12-26.77,21.63-26.77,21.63l-3.27-1.34Z"/><path class="cls-1" d="M244.49,397.22s29.87-17.96,51.36-37.38c18.54-16.75,40.46-47.32,45.58-55.15,20.02-30.63,38.5-84.5,47.3-108.2,9.37-25.24,15.2-61.62,21.26-88.05,5.94-25.88,6.39-39.04,6.39-39.04h80.62s-16.98,77.42-29.99,108.51c-13.57,32.45-41.95,115.18-87.74,159.67-28.84,28.03-64.34,44-90.73,51.82-16.39,4.86-25.73,5.69-25.73,5.69l-18.33,2.12Z"/></g></svg>