<?xml version="1.0" encoding="UTF-8"?><svg id="leaf" xmlns="http://www.w3.org/2000/svg" viewBox="0 0 500 500"><defs><style>.cls-1{fill:#dbedcc;}</style></defs><g id="left_side"><path class="cls-1" d="M18.59,10.56c-8.23,2.82-14.04,15.23-11.33,23.99,2.43,7.87,10.15,7.73,21.99,17.99,4.95,4.29,16.19,14.04,19.33,27.32,3.72,15.78-4.09,31.57-12.66,42.65-10.01,12.93-24.05,18.56-23.99,35.99.06,19.19,6.11,17.92,13.06,34.64,1.57,3.77,7.51,11.7,7.6,27.35.14,24.3-14.93,26.74-17.99,52.65-.55,4.61-2.85,28.09,10.66,47.32,11.77,16.74,24.69,14.85,34.66,27.32,14.08,17.63-3.6,35.32-1.33,73.98,1,17.11,2.66,45.45,21.33,62.65,32.48,29.93,94.71,6.09,99.97,4,30.65-12.17,39.51-17.51,72.08-33.91,7.95-4,42.59-14.9,75.67-8.45,22.91,4.47,32.52,6.83,63.51,13.04,21.61,4.33,23.65,5.03,41.99,8.66,18.71,3.7,24.47,4.7,33.12,5.92,4.17.59,9.71,1.55,9.08-2.55-1.31-8.56-18.17-7.27-38.87-18.04-12.94-6.73-26.77-12.29-38.61-18.58-28.04-14.92-42.71-23.02-53.36-28.07-59.32-28.11-122.16-62.06-129.96-67.98-48.33-36.69-74.4-78.56-86.64-98.64-23.42-38.4-60.62-99.4-61.31-157.28-.01-1.03.08-5.46-.62-11.35-.63-5.3-2.65-20.89-12.04-35.31-1.36-2.09-20.23-30.49-35.32-25.33Z"/></g><g id="right_side"><path class="cls-1" d="M64.13,60.56c3.53-2.03,23.68,21.49,36.72,24.46,8.1,1.85,16.38.27,32.6-5.55,31.98-11.47,38.49-24.36,53.18-22.84,13.61,1.41,20.77,11.91,24.36,17.3,5.92,8.89,7.31,22.94,17.23,30.77,12.34,9.74,25.55,9.11,43.69,8,40.8-2.51,46.8-14.96,68.92-11.08,11.52,2.02,23.04,16.86,27.08,31.39,2.5,9,2.74,16.3,7.37,20.32,11.52,10,20.32-.56,37.55,1.21,27.21,2.79,41.99,35.34,44.31,40,9.03,18.16,6.16,31.73-3.08,91.69-13.26,86.1-13.99,101.32-6.77,120.62,10.14,27.11,32.53,56.62,27.23,57.23-2.97.34-25.16-8.83-42.57-19.06-14.46-8.5-33.81-19.16-52.72-30.04-42.71-24.56-41.62-22.19-82.59-49.32-31.12-20.61-42.16-28.42-76.54-56.83-41.15-34.02-70.82-75.07-94.06-108.14-41.85-59.55-69.46-135.82-61.93-140.15Z"/></g><g id="little_leaf"><path class="cls-1" d="M61.34,51.44s13.73-2.55,21.72-9.15c5.5-4.54,17.75-15.13,25.92-20.89,15.04-10.62,22.36-17.94,29.87-15.57,6.83,2.16,11.96,11.16,11.36,18.93-1.14,14.86-19.19,23.14-35.12,29.53-16.86,6.76-50.95,6.27-50.95,6.27l-2.79-9.13Z"/></g></svg>